<svg width="24" height="24" viewBox="0 0 24 24" fill="none" xmlns="http://www.w3.org/2000/svg">
<path fill-rule="evenodd" clip-rule="evenodd" d="M12.252 4C14.196 4 14.4792 4.0104 15.2984 4.048C16.1496 4.0872 16.7312 4.2224 17.24 4.42C17.774 4.6207 18.2578 4.93549 18.6576 5.3424C19.0645 5.74222 19.3793 6.226 19.58 6.76C19.7776 7.2688 19.9128 7.8504 19.952 8.7016C19.9904 9.5552 20 9.8272 20 12V12.064C20 14.1784 19.9904 14.4536 19.952 15.2984C19.9128 16.1496 19.7776 16.7312 19.58 17.24C19.3793 17.774 19.0645 18.2578 18.6576 18.6576C18.2578 19.0645 17.774 19.3793 17.24 19.58C16.7312 19.7776 16.1496 19.9128 15.2984 19.952C14.4448 19.9904 14.1728 20 12 20H11.936C9.8216 20 9.5464 19.9904 8.7016 19.952C7.8504 19.9128 7.2688 19.7776 6.76 19.58C6.226 19.3793 5.74222 19.0645 5.3424 18.6576C4.93549 18.2578 4.6207 17.774 4.42 17.24C4.2224 16.7312 4.0872 16.1496 4.048 15.2984C4.0104 14.4792 4 14.1952 4 12.252V11.748C4 9.804 4.0104 9.5208 4.048 8.7016C4.0872 7.8504 4.2224 7.2688 4.42 6.76C4.6207 6.226 4.93549 5.74222 5.3424 5.3424C5.74222 4.93549 6.226 4.6207 6.76 4.42C7.2688 4.2224 7.8504 4.0872 8.7016 4.048C9.5208 4.0104 9.8048 4 11.748 4H12.252ZM12.1872 5.4416H11.8128C9.848 5.4416 9.5856 5.4504 8.7672 5.488C7.9872 5.524 7.564 5.6536 7.2816 5.7632C6.908 5.9088 6.6416 6.0816 6.3616 6.3616C6.0816 6.6416 5.9088 6.908 5.7632 7.2816C5.6536 7.564 5.5232 7.9872 5.488 8.7672C5.4504 9.5856 5.4416 9.848 5.4416 11.8128V12.1872C5.4416 14.152 5.4504 14.4144 5.488 15.2328C5.524 16.0128 5.6536 16.436 5.7632 16.7184C5.9088 17.0912 6.0824 17.3584 6.3616 17.6384C6.6416 17.9184 6.908 18.0912 7.2816 18.2368C7.564 18.3464 7.9872 18.4768 8.7672 18.512C9.6104 18.5504 9.8632 18.5584 12 18.5584H12.064C14.1416 18.5584 14.3976 18.5504 15.232 18.512C16.0128 18.476 16.436 18.3464 16.7184 18.2368C17.0912 18.0912 17.3584 17.9184 17.6384 17.6384C17.9184 17.3584 18.0912 17.092 18.2368 16.7184C18.3464 16.436 18.4768 16.0128 18.512 15.2328C18.5504 14.3888 18.5584 14.1368 18.5584 12V11.936C18.5584 9.8584 18.5504 9.6024 18.512 8.768C18.476 7.9872 18.3464 7.564 18.2368 7.2816C18.1086 6.93406 17.9041 6.61968 17.6384 6.3616C17.3803 6.09589 17.0659 5.89141 16.7184 5.7632C16.436 5.6536 16.0128 5.5232 15.2328 5.488C14.4144 5.4504 14.152 5.4416 12.1872 5.4416ZM12 7.892C12.5395 7.892 13.0737 7.99826 13.5721 8.2047C14.0705 8.41115 14.5233 8.71374 14.9048 9.09521C15.2863 9.47667 15.5889 9.92953 15.7953 10.4279C16.0017 10.9263 16.108 11.4605 16.108 12C16.108 12.5395 16.0017 13.0737 15.7953 13.5721C15.5889 14.0705 15.2863 14.5233 14.9048 14.9048C14.5233 15.2863 14.0705 15.5889 13.5721 15.7953C13.0737 16.0017 12.5395 16.108 12 16.108C10.9105 16.108 9.86561 15.6752 9.09521 14.9048C8.32481 14.1344 7.892 13.0895 7.892 12C7.892 10.9105 8.32481 9.86561 9.09521 9.09521C9.86561 8.32481 10.9105 7.892 12 7.892ZM12 9.3336C11.2928 9.3336 10.6146 9.61452 10.1146 10.1146C9.61452 10.6146 9.3336 11.2928 9.3336 12C9.3336 12.7072 9.61452 13.3854 10.1146 13.8854C10.6146 14.3855 11.2928 14.6664 12 14.6664C12.7072 14.6664 13.3854 14.3855 13.8854 13.8854C14.3855 13.3854 14.6664 12.7072 14.6664 12C14.6664 11.2928 14.3855 10.6146 13.8854 10.1146C13.3854 9.61452 12.7072 9.3336 12 9.3336ZM16.2704 6.7696C16.525 6.7696 16.7692 6.87074 16.9492 7.05078C17.1293 7.23081 17.2304 7.47499 17.2304 7.7296C17.2304 7.98421 17.1293 8.22839 16.9492 8.40842C16.7692 8.58846 16.525 8.6896 16.2704 8.6896C16.0158 8.6896 15.7716 8.58846 15.5916 8.40842C15.4115 8.22839 15.3104 7.98421 15.3104 7.7296C15.3104 7.47499 15.4115 7.23081 15.5916 7.05078C15.7716 6.87074 16.0158 6.7696 16.2704 6.7696Z" fill="white"/>
</svg>
