<svg width="24" height="24" viewBox="0 0 24 24" fill="none" xmlns="http://www.w3.org/2000/svg">
<path fill-rule="evenodd" clip-rule="evenodd" d="M11.8154 18.9183H13.028C13.028 18.9183 13.3918 18.8496 13.5736 18.6434C13.7555 18.4373 13.7555 18.025 13.7555 18.025C13.7555 18.025 13.7555 16.2384 14.4831 15.9636C15.2107 15.6887 16.1807 17.7501 17.1508 18.506C17.8784 19.1244 18.4241 18.987 18.4241 18.987L21.0918 18.9183C21.0918 18.9183 22.4863 18.8496 21.8194 17.544C21.7587 17.4753 21.4556 16.6507 19.8186 14.9328C18.1209 13.1463 18.3634 13.4899 20.3642 10.3977C21.5768 8.54243 22.0619 7.443 21.9406 6.89328C21.8194 6.41228 20.9099 6.54971 20.9099 6.54971H17.8784C17.8784 6.54971 17.6359 6.481 17.5146 6.61843C17.3327 6.75586 17.2721 6.962 17.2721 6.962C17.2721 6.962 16.787 8.405 16.1807 9.64185C14.8469 12.1843 14.3012 12.3217 14.1193 12.1843C13.6343 11.8407 13.7555 10.6726 13.7555 9.91671C13.7555 7.443 14.1193 6.41228 13.0886 6.13743C12.7855 6.06871 12.5429 6 11.6941 6C10.6028 6 9.69331 6 9.20826 6.27486C8.84448 6.481 8.60196 6.89328 8.78385 6.89328C8.96574 6.89328 9.45079 7.03071 9.69331 7.37428C9.93583 7.99271 9.93583 9.02343 9.93583 9.02343C9.93583 9.02343 10.1177 11.9781 9.51142 12.3217C9.087 12.5966 8.54133 12.0469 7.32873 9.71057C6.72242 8.54243 6.23738 7.16814 6.23738 7.16814C6.23738 7.16814 6.17675 6.89329 5.99486 6.75586C5.81297 6.61843 5.50982 6.54971 5.50982 6.54971H2.6602C2.6602 6.54971 2.23578 6.54971 2.05389 6.75586C1.93263 6.962 2.05389 7.30557 2.05389 7.30557C2.05389 7.30557 4.29721 13.215 6.84368 16.2384C9.20827 19.1244 11.8154 18.9183 11.8154 18.9183Z" fill="white"/>
</svg>
