<svg width="60" height="60" viewBox="0 0 60 60" fill="none" xmlns="http://www.w3.org/2000/svg">
<path d="M37.9969 14.8804C38.721 12.0716 40.618 7.04918 45.1998 4.97766C45.6728 4.76385 45.4226 4.0478 44.9204 4.18092C40.5262 5.34275 36.6848 9.73993 37.1658 14.8179C37.2102 15.2878 37.8789 15.3373 37.9969 14.8804Z" fill="#55240B"/>
<path d="M37.9927 14.8792C38.9125 11.3645 40.6562 7.82657 43.7474 5.749C44.1871 5.45048 44.6702 5.18624 45.1512 4.96033C45.5647 4.81208 45.4588 4.19486 45.0211 4.20293C44.9263 4.212 44.7377 4.27453 44.6419 4.30075C41.0042 5.40711 38.0119 8.58599 37.2988 12.3438C37.1869 12.9438 37.1355 13.555 37.1466 14.1662C37.1445 14.3195 37.1566 14.4718 37.1657 14.624C37.1758 14.7723 37.1677 14.9357 37.2766 15.0507C37.4834 15.2927 37.9221 15.1959 37.9927 14.8782V14.8792ZM38.0028 14.8812C37.9352 15.208 37.4784 15.3179 37.2615 15.0648C37.1486 14.9468 37.1516 14.7773 37.1405 14.6261C37.1284 14.4738 37.1153 14.3205 37.1153 14.1672C37.0971 13.554 37.1415 12.9398 37.2464 12.3347C37.8999 8.52548 40.9457 5.31735 44.6197 4.22612C44.7478 4.19587 44.9435 4.11317 45.0806 4.1283C45.4356 4.15149 45.6192 4.62853 45.3822 4.88772C45.3297 4.94823 45.2531 4.99361 45.1825 5.02589C45.0564 5.0864 44.8931 5.16305 44.77 5.22457C44.5814 5.32542 44.3525 5.44544 44.1709 5.5594C40.8569 7.56234 38.9599 11.2344 38.0028 14.8812Z" fill="#55240B"/>
<path d="M51.8241 26.3655C51.9079 27.5001 51.6729 28.7789 50.8459 30.1535C50.5393 30.6628 49.7547 30.3936 49.8242 29.8036C51.1454 18.4486 35.3095 13.772 26.2913 24.0247C26.1632 24.1709 26.1238 24.3747 26.1843 24.5592L26.9609 26.9172C27.088 27.3024 27.5721 27.4234 27.8666 27.1441L31.7222 23.4962C32.1629 23.1513 32.7781 23.6152 32.5724 24.1367C31.6092 26.5783 29.9159 30.8323 29.0395 33.0319C28.8489 33.5109 28.1641 33.4897 28.0027 33.0006L23.6267 19.7586C23.5914 19.6517 23.5259 19.5579 23.4361 19.4904C22.9036 19.088 21.0177 17.4249 22.2057 14.7977C22.3711 14.4316 22.1038 14.0171 21.7035 14.0171H9.61122C9.05249 14.0171 8.84776 14.7503 9.3248 15.0418C12.3221 16.8722 18.102 21.2745 20.7262 29.1712C20.7726 29.3094 20.7625 29.4627 20.6949 29.5928C15.9105 38.837 0.889469 28.5893 11.4044 22.9557C11.8945 22.6935 11.7352 21.9552 11.1815 21.9149C11.1593 21.9129 11.1381 21.9118 11.1159 21.9108C10.8467 21.8987 10.6813 22.0298 10.6813 22.0298C-0.202767 29.377 13.0705 40.9236 21.534 33.1842C21.8174 32.925 22.2713 33.0198 22.4195 33.3748L27.3805 45.1927C27.5761 45.6596 28.2458 45.6385 28.4112 45.1594L31.1927 37.1194C31.3127 36.7715 31.7313 36.6384 32.0328 36.8491C33.3288 37.7538 36.8233 39.6347 43.059 39.2262L43.1024 39.2222C46.482 38.7623 51.6436 37.1124 53.2431 30.7425L53.2542 30.683C53.4176 29.5192 53.7696 28.1385 52.8851 26.1083C52.637 25.5385 51.7818 25.7483 51.8282 26.3685L51.8241 26.3655ZM45.4997 35.5693C45.4745 35.5976 45.4462 35.6228 45.416 35.646C38.7849 40.6261 33.5264 36.9218 32.2658 35.8689C32.0893 35.7216 32.0227 35.4806 32.0984 35.2627L36.9877 21.2624C37.0593 21.0586 37.2429 20.9144 37.4577 20.8942C41.1267 20.5453 43.0026 21.6688 44.5809 22.5795C44.5809 22.5795 52.5997 27.6877 45.4997 35.5693Z" fill="#55240B"/>
<path d="M51.8299 26.3645C51.9257 27.5959 51.5959 28.8314 50.9969 29.9034C50.8789 30.1142 50.7599 30.3663 50.4966 30.4127C50.189 30.4833 49.8472 30.2594 49.8189 29.9387C49.8098 29.8127 49.8451 29.5202 49.8562 29.3871C50.2243 25.24 48.0984 21.6174 44.3991 19.7586C38.3005 16.6836 30.7174 18.9216 26.3757 23.9531C26.1921 24.1185 26.1145 24.3747 26.2163 24.6077L26.6782 26.0075L26.9092 26.7074C26.9727 26.9394 27.0706 27.1844 27.3237 27.252C27.5668 27.3367 27.7977 27.2107 27.9601 27.0281L28.4956 26.5208C29.1824 25.8703 30.9988 24.1498 31.7068 23.4791C31.8036 23.4035 31.9256 23.3561 32.0497 23.3561C32.4319 23.344 32.7476 23.7635 32.5973 24.1236L32.0749 25.4457L31.027 28.0891C30.6801 28.9635 29.7906 31.2085 29.4547 32.0536C29.37 32.2604 29.1441 32.8413 29.0614 33.045C28.8456 33.5755 28.073 33.4918 27.954 32.9351C26.6349 28.9463 24.9224 23.7696 23.6012 19.7758C23.5347 19.5418 23.2936 19.4389 23.1333 19.2766C22.4283 18.6402 21.8978 17.7678 21.806 16.8097C21.7455 16.2137 21.8494 15.6106 22.0632 15.0539C22.1046 14.9439 22.159 14.831 22.1963 14.7261C22.268 14.5133 22.1792 14.2591 21.9906 14.1371C21.8978 14.0736 21.7869 14.0443 21.6719 14.0484H21.3169C20.974 14.0443 15.3958 14.0534 14.9198 14.0504C14.0293 14.0584 11.5291 14.0453 10.6548 14.0514H9.94374C9.70876 14.0615 9.45561 14.009 9.28215 14.1633C9.10868 14.3035 9.04313 14.5617 9.12986 14.7664C9.18533 14.955 9.49394 15.0993 9.64623 15.2021C9.79952 15.2959 10.095 15.4885 10.2433 15.5904C11.1217 16.1703 11.99 16.843 12.7989 17.5177C16.1391 20.3577 18.8248 24.0056 20.38 28.1143L20.6251 28.783L20.7471 29.1168C20.8207 29.2852 20.8005 29.5051 20.6997 29.6594L20.613 29.8157C19.7708 31.388 18.3286 32.6739 16.5799 33.1196C13.8044 33.8397 10.6749 32.7424 8.83941 30.566C6.62871 27.8349 7.85912 25.0645 10.6104 23.3651C10.7627 23.2663 11.0652 23.0868 11.2236 23.0011C11.28 22.9678 11.399 22.9053 11.4475 22.8689C11.5564 22.7873 11.63 22.6622 11.6431 22.5261C11.6693 22.3082 11.5433 22.0783 11.3395 21.9976C11.1348 21.923 10.8786 21.9411 10.7011 22.0662C8.56811 23.4882 6.61661 25.6928 6.62064 28.3876C6.68418 32.9371 11.5725 36.0343 15.8154 35.6742C17.666 35.5492 19.4511 34.8059 20.8964 33.6511C21.0426 33.5412 21.2564 33.3556 21.3966 33.2306C21.4803 33.1579 21.568 33.0722 21.6759 33.0309C21.9553 32.9119 22.3083 33.0379 22.4404 33.3133C23.6638 36.2168 25.4741 40.5555 26.6944 43.4641L27.2017 44.6764L27.3287 44.9789C27.3721 45.0788 27.4094 45.1867 27.4629 45.2694C27.5738 45.4418 27.7977 45.5235 27.9974 45.4771C28.2102 45.4297 28.3453 45.2653 28.4008 45.0546L28.6156 44.4343L29.0463 43.1928C29.4739 41.9493 30.3402 39.4693 30.7678 38.2278C30.8425 38.0039 31.0189 37.5097 31.0906 37.2969C31.1289 37.1951 31.1531 37.0872 31.2146 36.9863C31.3679 36.7342 31.7189 36.6424 31.977 36.7816C34.6638 38.601 37.9889 39.2263 41.1879 39.2525C41.5278 39.2525 42.1521 39.2525 42.5 39.2263C42.9256 39.2192 43.3825 39.1698 43.802 39.0871C46.6955 38.5969 49.5517 37.2395 51.3236 34.8351C52.1173 33.7883 52.6831 32.5811 53.0644 31.3275C53.1168 31.1459 53.1904 30.8767 53.2358 30.6951L53.2852 30.3704C53.5273 29.024 53.5273 27.7885 53.0301 26.4946C52.9484 26.3141 52.8858 26.0519 52.7376 25.9167C52.3856 25.59 51.7785 25.8865 51.8269 26.3655L51.8299 26.3645ZM51.8198 26.3645C51.7634 25.8754 52.3947 25.5738 52.7487 25.9056C52.8294 25.9813 52.8848 26.0811 52.9221 26.184L53.0452 26.4886C53.2701 27.1028 53.4284 27.7543 53.4587 28.4098C53.497 29.0674 53.4093 29.7239 53.3064 30.3724L53.258 30.6971C53.2257 30.8797 53.1289 31.148 53.0875 31.3325C52.7073 32.5901 52.1415 33.7994 51.3478 34.8503C49.5738 37.2637 46.7126 38.6302 43.8111 39.1264C43.3895 39.2111 42.9357 39.2606 42.5041 39.2676C42.142 39.2948 41.5631 39.2969 41.1899 39.2959C37.9828 39.2747 34.6476 38.6524 31.9508 36.834C31.7189 36.709 31.4062 36.7927 31.2691 37.0176C31.1823 37.1921 31.1117 37.4402 31.0442 37.6267L30.8303 38.248C30.4017 39.4804 29.5445 41.9816 29.1169 43.216L28.6882 44.4575L28.4744 45.0788C28.4432 45.1796 28.3978 45.2966 28.3161 45.3813C28.0751 45.6506 27.596 45.6224 27.3983 45.3127C26.3313 42.8711 24.6259 38.725 23.5629 36.2299L22.5443 33.8085C22.4656 33.6461 22.3849 33.3597 22.2669 33.2366C22.1278 33.0924 21.9008 33.046 21.7153 33.1227C21.6225 33.159 21.5509 33.2306 21.4652 33.3042L21.2161 33.521C20.3739 34.227 19.4229 34.8109 18.3922 35.1992C15.0943 36.4942 11.1025 35.6127 8.61551 33.0995C6.86067 31.3739 6.00847 28.8122 6.86572 26.4371C7.53538 24.5522 9.02497 23.0898 10.6517 21.9885C10.8524 21.8503 11.1409 21.8241 11.3759 21.9119C11.752 22.0581 11.8599 22.5926 11.5745 22.875C11.4636 22.9779 11.39 23.0071 11.2679 23.0767L10.9593 23.2502L10.6588 23.4378C9.48285 24.1851 8.37044 25.2087 7.9519 26.5753C7.21669 28.9574 9.07742 31.2196 11.0894 32.2755C14.5648 34.1393 18.611 33.3728 20.5414 29.7733L20.6271 29.619C20.7189 29.4718 20.736 29.3024 20.6694 29.14L20.5474 28.8072L20.3033 28.1405C18.25 22.7076 14.234 18.1047 9.30736 15.071C8.82125 14.7927 8.9927 13.9868 9.58672 13.9798C10.2039 13.9727 11.4394 13.9818 12.0758 13.9798C13.8518 13.9818 18.7593 13.9798 20.6049 13.9818H21.3159C21.4551 13.9818 21.7233 13.9697 21.8555 14.003C22.1671 14.0837 22.3597 14.4387 22.2548 14.7432C21.4218 16.5142 21.915 18.2691 23.4419 19.4561C23.5417 19.5287 23.6184 19.6376 23.6547 19.7556L23.8776 20.4303C24.4393 22.1327 25.9692 26.7659 26.5522 28.5298C26.8457 29.4173 27.6051 31.7198 27.8895 32.5801C27.9187 32.6597 28.0196 32.9986 28.0629 33.0783C28.1951 33.3365 28.5491 33.4262 28.7951 33.277C29.0039 33.166 29.0453 32.9068 29.1421 32.694L29.4043 32.0334C29.7361 31.1984 30.6367 28.9352 30.9806 28.0709C31.3245 27.2046 32.2231 24.9485 32.5549 24.1084C32.7445 23.6213 32.1324 23.1836 31.734 23.5084C31.0149 24.1881 29.2137 25.8915 28.5198 26.546L27.9843 27.0523C27.8219 27.2389 27.5637 27.3751 27.3126 27.2833C27.1291 27.2298 26.9848 27.0725 26.9334 26.891L26.8759 26.7155L26.646 26.0156L26.1851 24.6147C26.0812 24.3787 26.1609 24.0973 26.3525 23.9299C30.7033 18.8974 38.3045 16.6605 44.4072 19.7415C47.0566 21.0617 49.1341 23.5144 49.7039 26.4512C49.9288 27.5344 49.9541 28.6559 49.834 29.7542C49.8199 29.8752 49.825 30.0003 49.8814 30.1102C50.0922 30.5287 50.7064 30.5065 50.894 30.0557L50.9858 29.8964C51.5838 28.8263 51.9146 27.5929 51.8188 26.3635L51.8198 26.3645Z" fill="#55240B"/>
<path d="M45.504 35.5723C42.8859 37.6438 39.477 38.7784 36.1761 37.8878C34.7682 37.5207 33.438 36.8501 32.3064 35.9343C32.0593 35.7699 31.9736 35.4351 32.1027 35.1699L32.1713 34.9742C33.562 30.9714 35.5508 25.2671 36.9436 21.2542C37.0414 20.9486 37.345 20.8246 37.6466 20.8336C37.8957 20.8104 38.2325 20.7923 38.4776 20.7882C40.5188 20.7197 42.2908 21.1927 44.0527 22.2183L44.4138 22.4241C45.0179 22.771 45.5393 23.247 46.0335 23.7321C47.5967 25.2974 48.6556 27.4818 48.4338 29.7299C48.2351 31.9627 46.9714 33.9395 45.504 35.5723ZM45.4969 35.5652C46.8605 34.0252 48.0364 32.2038 48.3349 30.1353C48.695 27.7582 47.634 25.4527 45.9609 23.8027C45.4727 23.3227 44.9574 22.8517 44.3623 22.5098L44.0023 22.3051C43.8228 22.2042 43.4567 22.0076 43.2721 21.9158C42.1658 21.356 40.9545 21.0101 39.7171 20.9183C39.1674 20.8709 38.6158 20.8699 38.0651 20.8962L37.6526 20.9254C37.5205 20.9365 37.3843 20.9304 37.2674 20.998C37.1554 21.0585 37.0687 21.1614 37.0273 21.2834L35.928 24.4169C34.979 27.1258 33.1536 32.3329 32.2217 34.9924L32.1531 35.188C32.0351 35.4381 32.1047 35.7387 32.3387 35.894C33.4632 36.8067 34.7834 37.4814 36.1842 37.8535C39.477 38.7592 42.8788 37.6266 45.4959 35.5652H45.4969Z" fill="#55240B"/>
</svg>
