<svg width="60" height="60" viewBox="0 0 60 60" fill="none" xmlns="http://www.w3.org/2000/svg">
<path d="M37.9969 14.8804C38.721 12.0716 40.618 7.04918 45.1998 4.97766C45.6728 4.76385 45.4226 4.0478 44.9204 4.18092C40.5262 5.34275 36.6848 9.73993 37.1658 14.8179C37.2102 15.2878 37.8789 15.3373 37.9969 14.8804Z" fill="white"/>
<path d="M37.9927 14.8792C38.9125 11.3645 40.6562 7.82657 43.7474 5.749C44.1871 5.45048 44.6702 5.18624 45.1512 4.96033C45.5647 4.81208 45.4588 4.19486 45.0211 4.20293C44.9263 4.212 44.7377 4.27453 44.6419 4.30075C41.0042 5.40711 38.0119 8.58599 37.2988 12.3438C37.1869 12.9438 37.1355 13.555 37.1466 14.1662C37.1445 14.3195 37.1566 14.4718 37.1657 14.624C37.1758 14.7723 37.1677 14.9357 37.2766 15.0507C37.4834 15.2927 37.9221 15.1959 37.9927 14.8782V14.8792ZM38.0028 14.8812C37.9352 15.208 37.4784 15.3179 37.2615 15.0648C37.1486 14.9468 37.1516 14.7773 37.1405 14.6261C37.1284 14.4738 37.1153 14.3205 37.1153 14.1672C37.0971 13.554 37.1415 12.9398 37.2464 12.3347C37.8999 8.52548 40.9457 5.31735 44.6197 4.22612C44.7478 4.19587 44.9435 4.11317 45.0806 4.1283C45.4356 4.15149 45.6192 4.62853 45.3822 4.88772C45.3297 4.94823 45.2531 4.99361 45.1825 5.02589C45.0564 5.0864 44.8931 5.16305 44.77 5.22457C44.5814 5.32542 44.3525 5.44544 44.1709 5.5594C40.8569 7.56234 38.9599 11.2344 38.0028 14.8812Z" fill="white"/>
<path d="M51.8241 26.3653C51.9079 27.4999 51.6729 28.7787 50.8459 30.1533C50.5393 30.6626 49.7547 30.3933 49.8242 29.8033C51.1454 18.4483 35.3095 13.7718 26.2913 24.0245C26.1632 24.1707 26.1238 24.3744 26.1843 24.559L26.9609 26.9169C27.088 27.3022 27.5721 27.4232 27.8666 27.1438L31.7222 23.496C32.1629 23.1511 32.7781 23.615 32.5724 24.1364C31.6092 26.5781 29.9159 30.832 29.0395 33.0316C28.8489 33.5107 28.1641 33.4895 28.0027 33.0004L23.6267 19.7584C23.5914 19.6515 23.5259 19.5577 23.4361 19.4901C22.9036 19.0877 21.0177 17.4247 22.2057 14.7974C22.3711 14.4313 22.1038 14.0168 21.7035 14.0168H9.61122C9.05249 14.0168 8.84776 14.75 9.3248 15.0415C12.3221 16.872 18.102 21.2742 20.7262 29.171C20.7726 29.3092 20.7625 29.4624 20.6949 29.5925C15.9105 38.8367 0.889469 28.5891 11.4044 22.9554C11.8945 22.6932 11.7352 21.955 11.1815 21.9146C11.1593 21.9126 11.1381 21.9116 11.1159 21.9106C10.8467 21.8985 10.6813 22.0296 10.6813 22.0296C-0.202767 29.3767 13.0705 40.9234 21.534 33.1839C21.8174 32.9247 22.2713 33.0195 22.4195 33.3745L27.3805 45.1925C27.5761 45.6594 28.2458 45.6382 28.4112 45.1592L31.1927 37.1192C31.3127 36.7712 31.7313 36.6381 32.0328 36.8489C33.3288 37.7536 36.8233 39.6345 43.059 39.226L43.1024 39.222C46.482 38.7621 51.6436 37.1121 53.2431 30.7423L53.2542 30.6828C53.4176 29.5189 53.7696 28.1383 52.8851 26.1081C52.637 25.5383 51.7818 25.748 51.8282 26.3683L51.8241 26.3653ZM45.4997 35.5691C45.4745 35.5973 45.4462 35.6225 45.416 35.6457C38.7849 40.6258 33.5264 36.9215 32.2658 35.8686C32.0893 35.7214 32.0227 35.4803 32.0984 35.2625L36.9877 21.2621C37.0593 21.0584 37.2429 20.9142 37.4577 20.894C41.1267 20.545 43.0026 21.6685 44.5809 22.5792C44.5809 22.5792 52.5997 27.6874 45.4997 35.5691Z" fill="white"/>
<path d="M51.8299 26.3643C51.9257 27.5957 51.5959 28.8311 50.9969 29.9032C50.8789 30.114 50.7599 30.3661 50.4966 30.4125C50.189 30.4831 49.8472 30.2592 49.8189 29.9385C49.8098 29.8124 49.8451 29.5199 49.8562 29.3868C50.2243 25.2398 48.0984 21.6171 44.3991 19.7584C38.3005 16.6834 30.7174 18.9213 26.3757 23.9529C26.1921 24.1183 26.1145 24.3744 26.2163 24.6074L26.6782 26.0072L26.9092 26.7072C26.9727 26.9391 27.0706 27.1842 27.3237 27.2518C27.5668 27.3365 27.7977 27.2104 27.9601 27.0279L28.4956 26.5206C29.1824 25.8701 30.9988 24.1495 31.7068 23.4789C31.8036 23.4032 31.9256 23.3558 32.0497 23.3558C32.4319 23.3437 32.7476 23.7633 32.5973 24.1233L32.0749 25.4455L31.027 28.0888C30.6801 28.9632 29.7906 31.2082 29.4547 32.0534C29.37 32.2601 29.1441 32.841 29.0614 33.0448C28.8456 33.5752 28.073 33.4915 27.954 32.9348C26.6349 28.9461 24.9224 23.7693 23.6012 19.7756C23.5347 19.5416 23.2936 19.4387 23.1333 19.2763C22.4283 18.6399 21.8978 17.7676 21.806 16.8095C21.7455 16.2134 21.8494 15.6103 22.0632 15.0536C22.1046 14.9437 22.159 14.8307 22.1963 14.7259C22.268 14.5131 22.1792 14.2589 21.9906 14.1369C21.8978 14.0733 21.7869 14.0441 21.6719 14.0481H21.3169C20.974 14.0441 15.3958 14.0532 14.9198 14.0501C14.0293 14.0582 11.5291 14.0451 10.6548 14.0511H9.94374C9.70876 14.0612 9.45561 14.0088 9.28215 14.1631C9.10868 14.3033 9.04313 14.5615 9.12986 14.7662C9.18533 14.9548 9.49394 15.099 9.64623 15.2019C9.79952 15.2957 10.095 15.4883 10.2433 15.5902C11.1217 16.1701 11.99 16.8428 12.7989 17.5175C16.1391 20.3575 18.8248 24.0053 20.38 28.1141L20.6251 28.7827L20.7471 29.1165C20.8207 29.285 20.8005 29.5048 20.6997 29.6591L20.613 29.8154C19.7708 31.3877 18.3286 32.6736 16.5799 33.1194C13.8044 33.8395 10.6749 32.7422 8.83941 30.5658C6.62871 27.8347 7.85912 25.0643 10.6104 23.3649C10.7627 23.2661 11.0652 23.0865 11.2236 23.0008C11.28 22.9675 11.399 22.905 11.4475 22.8687C11.5564 22.787 11.63 22.662 11.6431 22.5258C11.6693 22.308 11.5433 22.078 11.3395 21.9973C11.1348 21.9227 10.8786 21.9409 10.7011 22.0659C8.56811 23.4879 6.61661 25.6926 6.62064 28.3874C6.68418 32.9368 11.5725 36.034 15.8154 35.674C17.666 35.5489 19.4511 34.8056 20.8964 33.6509C21.0426 33.541 21.2564 33.3554 21.3966 33.2303C21.4803 33.1577 21.568 33.072 21.6759 33.0306C21.9553 32.9116 22.3083 33.0377 22.4404 33.313C23.6638 36.2166 25.4741 40.5553 26.6944 43.4639L27.2017 44.6761L27.3287 44.9787C27.3721 45.0785 27.4094 45.1864 27.4629 45.2691C27.5738 45.4416 27.7977 45.5233 27.9974 45.4769C28.2102 45.4295 28.3453 45.2651 28.4008 45.0543L28.6156 44.4341L29.0463 43.1926C29.4739 41.949 30.3402 39.4691 30.7678 38.2276C30.8425 38.0037 31.0189 37.5095 31.0906 37.2967C31.1289 37.1948 31.1531 37.0869 31.2146 36.9861C31.3679 36.734 31.7189 36.6422 31.977 36.7813C34.6638 38.6007 37.9889 39.226 41.1879 39.2522C41.5278 39.2522 42.1521 39.2522 42.5 39.226C42.9256 39.219 43.3825 39.1695 43.802 39.0868C46.6955 38.5967 49.5517 37.2392 51.3236 34.8349C52.1173 33.788 52.6831 32.5808 53.0644 31.3272C53.1168 31.1457 53.1904 30.8764 53.2358 30.6949L53.2852 30.3701C53.5273 29.0238 53.5273 27.7883 53.0301 26.4944C52.9484 26.3138 52.8858 26.0516 52.7376 25.9165C52.3856 25.5897 51.7785 25.8862 51.8269 26.3653L51.8299 26.3643ZM51.8198 26.3643C51.7634 25.8751 52.3947 25.5736 52.7487 25.9054C52.8294 25.981 52.8848 26.0809 52.9221 26.1837L53.0452 26.4883C53.2701 27.1025 53.4284 27.754 53.4587 28.4096C53.497 29.0671 53.4093 29.7237 53.3064 30.3722L53.258 30.6969C53.2257 30.8794 53.1289 31.1477 53.0875 31.3323C52.7073 32.5899 52.1415 33.7991 51.3478 34.85C49.5738 37.2634 46.7126 38.63 43.8111 39.1262C43.3895 39.2109 42.9357 39.2603 42.5041 39.2674C42.142 39.2946 41.5631 39.2966 41.1899 39.2956C37.9828 39.2744 34.6476 38.6522 31.9508 36.8338C31.7189 36.7087 31.4062 36.7924 31.2691 37.0173C31.1823 37.1918 31.1117 37.4399 31.0442 37.6265L30.8303 38.2477C30.4017 39.4802 29.5445 41.9813 29.1169 43.2158L28.6882 44.4573L28.4744 45.0785C28.4432 45.1794 28.3978 45.2964 28.3161 45.3811C28.0751 45.6503 27.596 45.6221 27.3983 45.3125C26.3313 42.8708 24.6259 38.7248 23.5629 36.2297L22.5443 33.8082C22.4656 33.6458 22.3849 33.3594 22.2669 33.2364C22.1278 33.0922 21.9008 33.0458 21.7153 33.1224C21.6225 33.1587 21.5509 33.2303 21.4652 33.3039L21.2161 33.5208C20.3739 34.2267 19.4229 34.8107 18.3922 35.199C15.0943 36.4939 11.1025 35.6125 8.61551 33.0992C6.86067 31.3736 6.00847 28.812 6.86572 26.4369C7.53538 24.5519 9.02497 23.0896 10.6517 21.9883C10.8524 21.8501 11.1409 21.8239 11.3759 21.9116C11.752 22.0578 11.8599 22.5924 11.5745 22.8748C11.4636 22.9776 11.39 23.0069 11.2679 23.0765L10.9593 23.2499L10.6588 23.4375C9.48285 24.1848 8.37044 25.2085 7.9519 26.575C7.21669 28.9572 9.07742 31.2193 11.0894 32.2752C14.5648 34.139 18.611 33.3725 20.5414 29.7731L20.6271 29.6188C20.7189 29.4715 20.736 29.3021 20.6694 29.1397L20.5474 28.8069L20.3033 28.1403C18.25 22.7073 14.234 18.1044 9.30736 15.0708C8.82125 14.7924 8.9927 13.9866 9.58672 13.9795C10.2039 13.9725 11.4394 13.9816 12.0758 13.9795C13.8518 13.9816 18.7593 13.9795 20.6049 13.9816H21.3159C21.4551 13.9816 21.7233 13.9695 21.8555 14.0027C22.1671 14.0834 22.3597 14.4384 22.2548 14.743C21.4218 16.514 21.915 18.2688 23.4419 19.4558C23.5417 19.5285 23.6184 19.6374 23.6547 19.7554L23.8776 20.4301C24.4393 22.1325 25.9692 26.7657 26.5522 28.5296C26.8457 29.4171 27.6051 31.7196 27.8895 32.5798C27.9187 32.6595 28.0196 32.9984 28.0629 33.078C28.1951 33.3362 28.5491 33.426 28.7951 33.2767C29.0039 33.1658 29.0453 32.9066 29.1421 32.6938L29.4043 32.0332C29.7361 31.1981 30.6367 28.935 30.9806 28.0707C31.3245 27.2044 32.2231 24.9483 32.5549 24.1082C32.7445 23.6211 32.1324 23.1834 31.734 23.5081C31.0149 24.1879 29.2137 25.8913 28.5198 26.5458L27.9843 27.0521C27.8219 27.2387 27.5637 27.3748 27.3126 27.283C27.1291 27.2296 26.9848 27.0723 26.9334 26.8907L26.8759 26.7152L26.646 26.0153L26.1851 24.6145C26.0812 24.3785 26.1609 24.0971 26.3525 23.9297C30.7033 18.8971 38.3045 16.6602 44.4072 19.7413C47.0566 21.0614 49.1341 23.5142 49.7039 26.451C49.9288 27.5342 49.9541 28.6556 49.834 29.7539C49.8199 29.875 49.825 30 49.8814 30.1099C50.0922 30.5285 50.7064 30.5063 50.894 30.0555L50.9858 29.8961C51.5838 28.8261 51.9146 27.5927 51.8188 26.3633L51.8198 26.3643Z" fill="white"/>
<path d="M45.504 35.572C42.8859 37.6435 39.477 38.7781 36.1761 37.8876C34.7682 37.5205 33.438 36.8498 32.3064 35.9341C32.0593 35.7697 31.9736 35.4349 32.1027 35.1696L32.1713 34.974C33.562 30.9711 35.5508 25.2669 36.9436 21.2539C37.0414 20.9484 37.345 20.8243 37.6466 20.8334C37.8957 20.8102 38.2325 20.792 38.4776 20.788C40.5188 20.7194 42.2908 21.1924 44.0527 22.2181L44.4138 22.4238C45.0179 22.7708 45.5393 23.2468 46.0335 23.7319C47.5967 25.2971 48.6556 27.4816 48.4338 29.7296C48.2351 31.9625 46.9714 33.9392 45.504 35.572ZM45.4969 35.565C46.8605 34.0249 48.0364 32.2035 48.3349 30.135C48.695 27.7579 47.634 25.4524 45.9609 23.8025C45.4727 23.3224 44.9574 22.8514 44.3623 22.5096L44.0023 22.3048C43.8228 22.204 43.4567 22.0073 43.2721 21.9155C42.1658 21.3558 40.9545 21.0099 39.7171 20.9181C39.1674 20.8707 38.6158 20.8697 38.0651 20.8959L37.6526 20.9252C37.5205 20.9363 37.3843 20.9302 37.2674 20.9978C37.1554 21.0583 37.0687 21.1612 37.0273 21.2832L35.928 24.4167C34.979 27.1256 33.1536 32.3326 32.2217 34.9921L32.1531 35.1878C32.0351 35.4379 32.1047 35.7384 32.3387 35.8937C33.4632 36.8065 34.7834 37.4812 36.1842 37.8533C39.477 38.759 42.8788 37.6264 45.4959 35.565H45.4969Z" fill="white"/>
</svg>
